<svg xmlns="http://www.w3.org/2000/svg" width="1182" height="1677"><path style="fill:#010101; stroke:none;" d="M0 0L0 925C15.2162 916.243 28.4449 897.802 40.8735 885.373L124.873 801.373C215.029 711.218 305.719 621.781 395.873 531.627L489.627 437.873L513.627 413.873C516.077 411.423 521.697 407.58 522.133 403.917C522.7 399.144 512.227 391.727 509.127 388.627L467.873 347.373L333.627 213.127L299.127 178.627C295.865 175.365 287.527 169.67 286.843 164.917C286.252 160.816 293.318 155.929 295.873 153.373L326.627 122.627L409.873 39.3734C421.855 27.3918 439.557 14.6713 448 0L0 0z"></path><path style="fill:#ffffff; stroke:none;" d="M448.285 0.995361C443.992 2.77246 440.112 8.38831 436.873 11.6266L411.373 37.1266L322.873 125.627L295.127 153.373C292.411 156.089 285.929 160.54 286.437 164.917C287.007 169.825 295.062 175.315 298.373 178.627L333.627 213.873L467.127 347.373L509.127 389.373C512.049 392.296 522.958 400.139 521.267 404.739C519.816 408.687 514.297 412.45 511.373 415.373L488.873 437.873L409.373 517.373C315.469 611.278 221.03 704.47 127.127 798.373L31.8735 893.627L8.62654 916.873C6.16242 919.338 0.606481 923.153 0.606481 927C0.606481 931.05 6.77056 935.271 9.37346 937.873L34.8735 963.373L138.373 1066.87L550.873 1479.37C590.313 1518.81 628.695 1558.94 668.127 1598.37L695.873 1626.13C698.711 1628.96 703.166 1635.49 707.841 1634.16C711.952 1632.99 715.703 1627.55 718.627 1624.63L743.373 1599.87L832.627 1510.63L860.373 1482.87C862.736 1480.51 869.179 1476.08 868.292 1472.21C867.136 1467.17 858.69 1461.44 855.127 1457.87L819.873 1422.63L686.373 1289.13L642.873 1245.63C639.951 1242.7 629.042 1234.86 630.733 1230.26C632.184 1226.31 637.703 1222.55 640.627 1219.63L663.127 1197.13L742.627 1117.63C837.261 1022.99 932.531 928.969 1027.13 834.373L1123.13 738.373L1146.37 715.127C1148.82 712.676 1154.02 709.043 1153.56 705.083C1153.07 700.797 1146.74 696.489 1143.87 693.627L1116.87 666.627L1013.37 563.127L607.627 157.373C567.535 117.282 528.007 76.5065 487.873 36.3734L459.373 7.87341C456.744 5.24402 452.624 -0.800537 448.285 0.995361z"></path><path style="fill:#010101; stroke:none;" d="M452 0C456.041 7.02087 463.416 12.6625 469.127 18.3734L505.127 54.3734C542.524 91.7708 579.261 129.761 616.627 167.127L978.127 528.627L1110.13 660.627L1143.13 693.627C1145.84 696.337 1153.54 701.663 1153.18 705.917C1152.87 709.622 1147.31 713.433 1144.87 715.873L1120.87 739.873L1027.87 832.873C932.779 927.968 837.01 1022.49 741.873 1117.63L661.627 1197.87L639.127 1220.37C636.407 1223.09 631.377 1226.55 630.082 1230.26C628.17 1235.74 644.455 1247.96 648.127 1251.63L708.127 1311.63L828.127 1431.63L858.127 1461.63C860.649 1464.15 867.872 1469.15 867.872 1473C867.872 1475.67 864.325 1478.17 862.627 1479.87L846.127 1496.37L780.127 1562.37L725.373 1617.13C721.522 1620.98 711.885 1634.48 706.051 1633.84C701.166 1633.31 695.43 1624.93 692.127 1621.63L658.373 1587.87C613.984 1543.48 570.561 1498.31 526.127 1453.87L165.373 1093.13L52.8735 980.627L18.3735 946.127C12.6624 940.415 7.02099 933.041 0 929L0 1677L1182 1677L1182 0L452 0M671.425 585.714C659.142 589.52 650.394 601.359 641.627 610.127L589.127 662.627L413.627 838.127L364.127 887.627C356.856 894.897 346.259 902.462 342.749 912.425C337.397 927.619 350.619 940.871 360.373 950.627L437.627 1027.87C445.883 1036.13 460.855 1055.34 474.615 1052.24C489.428 1048.9 498.813 1037.69 509.127 1027.37L558.627 977.873L737.873 798.627L785.873 750.627C795.013 741.487 805.445 733.327 809.286 720.576C813.82 705.525 795.554 691.307 786.373 682.127L709.127 604.873C699.293 595.04 687.186 580.832 671.425 585.714z"></path></svg>